<?xml version="1.0" encoding="UTF-8"?>
<svg id="_0" data-name="0" xmlns="http://www.w3.org/2000/svg" viewBox="0 0 224.75 512.71">
  <defs>
    <style>
      .cls-1 {
        fill: none;
        stroke: #000;
        stroke-linecap: round;
        stroke-linejoin: round;
        stroke-width: .71px;
      }
    </style>
  </defs>
  <g id="LINE">
    <g>
      <polygon points="203.64 476.41 224.39 512.35 148.15 512.35 127.41 476.41 203.64 476.41"/>
      <g>
        <line class="cls-1" x1="148.15" y1="512.35" x2="224.39" y2="512.35"/>
        <line class="cls-1" x1="203.64" y1="476.41" x2="127.41" y2="476.41"/>
        <line class="cls-1" x1="203.64" y1="476.41" x2="224.39" y2="512.35"/>
        <line class="cls-1" x1="127.41" y1="476.41" x2="148.15" y2="512.35"/>
      </g>
    </g>
  </g>
  <g id="LINE-2" data-name="LINE">
    <g>
      <polygon points="178.23 432.4 198.98 468.34 122.74 468.34 102 432.4 178.23 432.4"/>
      <g>
        <line class="cls-1" x1="122.74" y1="468.34" x2="198.98" y2="468.34"/>
        <line class="cls-1" x1="178.23" y1="432.4" x2="102" y2="432.4"/>
        <line class="cls-1" x1="178.23" y1="432.4" x2="198.98" y2="468.34"/>
        <line class="cls-1" x1="102" y1="432.4" x2="122.74" y2="468.34"/>
      </g>
    </g>
  </g>
  <g id="LINE-3" data-name="LINE">
    <g>
      <polygon points="152.82 388.39 173.57 424.32 97.33 424.32 76.59 388.39 152.82 388.39"/>
      <g>
        <line class="cls-1" x1="97.33" y1="424.32" x2="173.57" y2="424.32"/>
        <line class="cls-1" x1="152.82" y1="388.39" x2="76.59" y2="388.39"/>
        <line class="cls-1" x1="152.82" y1="388.39" x2="173.57" y2="424.32"/>
        <line class="cls-1" x1="76.59" y1="388.39" x2="97.33" y2="424.32"/>
      </g>
    </g>
  </g>
  <g id="LINE-4" data-name="LINE">
    <g>
      <polygon points="127.41 344.38 148.15 380.31 71.92 380.31 51.17 344.38 127.41 344.38"/>
      <g>
        <line class="cls-1" x1="71.92" y1="380.31" x2="148.15" y2="380.31"/>
        <line class="cls-1" x1="127.41" y1="344.38" x2="51.17" y2="344.38"/>
        <line class="cls-1" x1="127.41" y1="344.38" x2="148.15" y2="380.31"/>
        <line class="cls-1" x1="51.17" y1="344.38" x2="71.92" y2="380.31"/>
      </g>
    </g>
  </g>
  <g id="LINE-5" data-name="LINE">
    <g>
      <polygon points="102 300.36 122.74 336.3 46.51 336.3 25.76 300.36 102 300.36"/>
      <g>
        <line class="cls-1" x1="46.51" y1="336.3" x2="122.74" y2="336.3"/>
        <line class="cls-1" x1="102" y1="300.36" x2="25.76" y2="300.36"/>
        <line class="cls-1" x1="102" y1="300.36" x2="122.74" y2="336.3"/>
        <line class="cls-1" x1="25.76" y1="300.36" x2="46.51" y2="336.3"/>
      </g>
    </g>
  </g>
  <g id="LINE-6" data-name="LINE">
    <g>
      <polygon points="224.39 .35 203.64 36.29 127.41 36.29 148.15 .35 224.39 .35"/>
      <g>
        <line class="cls-1" x1="148.15" y1=".35" x2="224.39" y2=".35"/>
        <line class="cls-1" x1="203.64" y1="36.29" x2="127.41" y2="36.29"/>
        <line class="cls-1" x1="203.64" y1="36.29" x2="224.39" y2=".35"/>
        <line class="cls-1" x1="127.41" y1="36.29" x2="148.15" y2=".35"/>
      </g>
    </g>
  </g>
  <g id="LINE-7" data-name="LINE">
    <g>
      <polygon points="198.98 44.36 178.23 80.3 102 80.3 122.74 44.36 198.98 44.36"/>
      <g>
        <line class="cls-1" x1="122.74" y1="44.36" x2="198.98" y2="44.36"/>
        <line class="cls-1" x1="178.23" y1="80.3" x2="102" y2="80.3"/>
        <line class="cls-1" x1="178.23" y1="80.3" x2="198.98" y2="44.36"/>
        <line class="cls-1" x1="102" y1="80.3" x2="122.74" y2="44.36"/>
      </g>
    </g>
  </g>
  <g id="LINE-8" data-name="LINE">
    <g>
      <polygon points="173.57 88.38 152.82 124.31 76.59 124.31 97.33 88.38 173.57 88.38"/>
      <g>
        <line class="cls-1" x1="97.33" y1="88.38" x2="173.57" y2="88.38"/>
        <line class="cls-1" x1="152.82" y1="124.31" x2="76.59" y2="124.31"/>
        <line class="cls-1" x1="152.82" y1="124.31" x2="173.57" y2="88.38"/>
        <line class="cls-1" x1="76.59" y1="124.31" x2="97.33" y2="88.38"/>
      </g>
    </g>
  </g>
  <g id="LINE-9" data-name="LINE">
    <g>
      <polygon points="148.15 132.39 127.41 168.32 51.17 168.32 71.92 132.39 148.15 132.39"/>
      <g>
        <line class="cls-1" x1="71.92" y1="132.39" x2="148.15" y2="132.39"/>
        <line class="cls-1" x1="127.41" y1="168.32" x2="51.17" y2="168.32"/>
        <line class="cls-1" x1="127.41" y1="168.32" x2="148.15" y2="132.39"/>
        <line class="cls-1" x1="51.17" y1="168.32" x2="71.92" y2="132.39"/>
      </g>
    </g>
  </g>
  <g id="LINE-10" data-name="LINE">
    <g>
      <polygon points="122.74 176.4 102 212.34 25.76 212.34 46.51 176.4 122.74 176.4"/>
      <g>
        <line class="cls-1" x1="46.51" y1="176.4" x2="122.74" y2="176.4"/>
        <line class="cls-1" x1="102" y1="212.34" x2="25.76" y2="212.34"/>
        <line class="cls-1" x1="102" y1="212.34" x2="122.74" y2="176.4"/>
        <line class="cls-1" x1="25.76" y1="212.34" x2="46.51" y2="176.4"/>
      </g>
    </g>
  </g>
  <g id="LINE-11" data-name="LINE">
    <g>
      <polygon points="97.33 220.41 76.59 256.35 97.33 292.29 21.1 292.29 .35 256.35 21.1 220.41 97.33 220.41"/>
      <g>
        <line class="cls-1" x1="21.1" y1="292.29" x2="97.33" y2="292.29"/>
        <line class="cls-1" x1="76.59" y1="256.35" x2="97.33" y2="292.29"/>
        <line class="cls-1" x1=".35" y1="256.35" x2="21.1" y2="292.29"/>
        <line class="cls-1" x1="21.1" y1="220.41" x2="97.33" y2="220.41"/>
        <line class="cls-1" x1="76.59" y1="256.35" x2="97.33" y2="220.41"/>
        <line class="cls-1" x1=".35" y1="256.35" x2="21.1" y2="220.41"/>
      </g>
    </g>
  </g>
</svg>