<?xml version="1.0" standalone="no"?><!DOCTYPE svg PUBLIC "-//W3C//DTD SVG 1.1//EN" "http://www.w3.org/Graphics/SVG/1.1/DTD/svg11.dtd"><svg t="1744201582879" class="icon" viewBox="0 0 1181 1024" version="1.1" xmlns="http://www.w3.org/2000/svg" p-id="6192" xmlns:xlink="http://www.w3.org/1999/xlink" width="230.6640625" height="200"><path d="M315.076923 550.321231a196.923077 196.923077 0 0 0 0 393.846154 196.923077 196.923077 0 0 0 0-393.846154z m0 315.076923a118.153846 118.153846 0 0 1 0-236.307692 118.153846 118.153846 0 0 1 0 236.307692zM866.461538 550.321231a196.923077 196.923077 0 1 0 196.923077 196.923077 194.993231 194.993231 0 0 0-196.923077-196.923077z m0 315.076923a118.153846 118.153846 0 1 1 118.153847-118.153846 116.027077 116.027077 0 0 1-118.153847 118.153846zM803.446154 349.459692c3.938462 0 7.876923 0 7.876923 3.938462h27.569231a114.215385 114.215385 0 0 0 114.215384-90.584616 106.338462 106.338462 0 0 0-15.753846-90.584615 102.4 102.4 0 0 0-70.892308-51.2c-47.261538-11.815385-161.476923 15.753846-208.738461 27.569231l-63.015385 15.753846 43.323077 47.261538c35.446154 39.384615 118.153846 122.092308 165.415385 137.846154z m43.323077-153.6a45.568 45.568 0 0 1 27.569231 19.692308 41.865846 41.865846 0 0 1 3.938461 31.507692 37.376 37.376 0 0 1-47.261538 27.569231l-7.876923 39.384615 3.938461-39.384615a467.495385 467.495385 0 0 1-78.769231-63.015385 308.617846 308.617846 0 0 1 98.461539-15.753846z" p-id="6193"></path><path d="M748.307692 487.305846a77.745231 77.745231 0 0 0 55.138462 23.630769H945.230769v-78.76923h-141.784615l-86.646154-86.646154a77.705846 77.705846 0 0 0-90.584615-15.753846l-153.6 78.76923a52.932923 52.932923 0 0 0-27.569231 23.63077 77.036308 77.036308 0 0 0 15.753846 110.276923l90.584615 66.953846v216.615384h78.769231v-216.615384a82.235077 82.235077 0 0 0-31.507692-63.015385l-90.584616-66.953846 153.6-78.769231z" p-id="6194"></path></svg>